<?xml version="1.0" encoding="UTF-8"?>
<!DOCTYPE svg PUBLIC "-//W3C//DTD SVG 1.1//EN" "http://www.w3.org/Graphics/SVG/1.1/DTD/svg11.dtd">
<!-- Creator: CorelDRAW 2020 (64 Bit) -->
<svg xmlns="http://www.w3.org/2000/svg" xml:space="preserve" width="11.1916mm" height="13.3675mm" version="1.1" style="shape-rendering:geometricPrecision; text-rendering:geometricPrecision; image-rendering:optimizeQuality; fill-rule:evenodd; clip-rule:evenodd"
viewBox="0 0 172.47 206"
 xmlns:xlink="http://www.w3.org/1999/xlink"
 xmlns:xodm="http://www.corel.com/coreldraw/odm/2003">
 <defs>
  <style type="text/css">
   <![CDATA[
    .fil0 {fill:#323232}
   ]]>
  </style>
 </defs>
 <g id="Camada_x0020_1">
  <metadata id="CorelCorpID_0Corel-Layer"/>
  <path class="fil0" d="M28.53 87.92l0.2 -16.96c-0.85,-3.49 -15.11,-7.03 -6.45,-29.75 12.59,-33.01 64.69,-28.53 65.85,16.66 1.16,45.31 -30.02,86.09 -79.26,87.46l0.06 20.07 116.59 0.15 0.28 40.45 20.15 -0.1 -0.04 -40.35 26.56 -0.01 -0.15 -20.24 -26.45 0.09 -0.04 -139.31 -19.76 -0.27 -0.29 138.94 -56.58 0.63c9.23,-11 12.03,-9.3 23.01,-27.78 38.03,-64.02 5.68,-129.67 -53.21,-115.69 -13.24,3.14 -23.02,10.49 -29.61,21.15 -13.61,21.99 -16.34,66.17 19.16,64.87z"/>
 </g>
</svg>
