<?xml version="1.0" encoding="UTF-8"?>
<!DOCTYPE svg PUBLIC "-//W3C//DTD SVG 1.1//EN" "http://www.w3.org/Graphics/SVG/1.1/DTD/svg11.dtd">
<!-- Creator: CorelDRAW 2020 (64 Bit) -->
<svg xmlns="http://www.w3.org/2000/svg" xml:space="preserve" width="10.4212mm" height="13.6145mm" version="1.1" style="shape-rendering:geometricPrecision; text-rendering:geometricPrecision; image-rendering:optimizeQuality; fill-rule:evenodd; clip-rule:evenodd"
viewBox="0 0 1416.77 1850.91"
 xmlns:xlink="http://www.w3.org/1999/xlink"
 xmlns:xodm="http://www.corel.com/coreldraw/odm/2003">
 <defs>
  <style type="text/css">
   <![CDATA[
    .fil0 {fill:#323232}
    .fil1 {fill:#FEFEFE}
   ]]>
  </style>
 </defs>
 <g id="Camada_x0020_1">
  <metadata id="CorelCorpID_0Corel-Layer"/>
  <path class="fil0" d="M-0 120.81c73.67,47.23 393.99,94.13 521.39,242.71l90.64 104.94c34.04,47.65 47.76,65.68 73.86,121.53 46.59,99.65 72.88,198.91 74.96,320.89 5.64,329.22 -203,614.93 -464.99,713.17 -69.16,25.94 -246.07,71.84 -288.56,104.25 171.53,40.72 285.66,118.52 496.06,122.44 915.16,17.03 1261.52,-1231.39 481.62,-1721.03 -298.03,-187.11 -664.27,-155.38 -984.98,-8.89z"/>
  <path class="fil1" d="M584.79 187.95c493.94,360.92 439.08,1163.28 2.32,1471.15 47.2,27.07 214.82,-45.26 254.02,-65.76 74.53,-38.94 162.14,-103.4 202.88,-152.95 413.22,-502.37 122.64,-1152.5 -392.02,-1254.87 -38.16,-7.59 -46.5,-9.12 -67.21,2.42z"/>
 </g>
</svg>
