<?xml version="1.0" encoding="UTF-8"?>
<!DOCTYPE svg PUBLIC "-//W3C//DTD SVG 1.1//EN" "http://www.w3.org/Graphics/SVG/1.1/DTD/svg11.dtd">
<!-- Creator: CorelDRAW 2020 (64 Bit) -->
<svg xmlns="http://www.w3.org/2000/svg" xml:space="preserve" width="11.7345mm" height="11.7305mm" version="1.1" style="shape-rendering:geometricPrecision; text-rendering:geometricPrecision; image-rendering:optimizeQuality; fill-rule:evenodd; clip-rule:evenodd"
viewBox="0 0 284.68 284.58"
 xmlns:xlink="http://www.w3.org/1999/xlink"
 xmlns:xodm="http://www.corel.com/coreldraw/odm/2003">
 <defs>
  <style type="text/css">
   <![CDATA[
    .fil0 {fill:#323232}
   ]]>
  </style>
 </defs>
 <g id="Camada_x0020_1">
  <metadata id="CorelCorpID_0Corel-Layer"/>
  <path class="fil0" d="M194.55 14.51l0.01 17.49 35.21 -0.06 -35.62 36.03c-28.23,-16.13 -49.53,-28.7 -89.67,-23.27 -107.99,14.62 -134.43,144.57 -69.14,206.3 86.66,81.91 236.41,3.51 200.56,-122.49 -2.22,-7.81 -4.55,-13.35 -8.33,-20.39 -3.72,-6.92 -8.4,-12.37 -10.28,-17.61 6.29,-8.59 28.42,-31.7 35.76,-35.1l0.27 34.85 30.79 -0.1 0.57 -90.15 -90 0.04 -0.13 14.47zm-91.77 62.58c-43.21,8.78 -79.7,50.74 -69.74,104.6 7.91,42.77 52.09,80.88 104.67,70.13 42.51,-8.69 81.4,-50.47 70.06,-105.51 -8.72,-42.34 -51,-80.19 -104.99,-69.22z"/>
 </g>
</svg>
