<?xml version="1.0" encoding="UTF-8"?>
<!DOCTYPE svg PUBLIC "-//W3C//DTD SVG 1.1//EN" "http://www.w3.org/Graphics/SVG/1.1/DTD/svg11.dtd">
<!-- Creator: CorelDRAW 2020 (64 Bit) -->
<svg xmlns="http://www.w3.org/2000/svg" xml:space="preserve" width="9.9571mm" height="17.317mm" version="1.1" style="shape-rendering:geometricPrecision; text-rendering:geometricPrecision; image-rendering:optimizeQuality; fill-rule:evenodd; clip-rule:evenodd"
viewBox="0 0 138.83 241.44"
 xmlns:xlink="http://www.w3.org/1999/xlink"
 xmlns:xodm="http://www.corel.com/coreldraw/odm/2003">
 <defs>
  <style type="text/css">
   <![CDATA[
    .fil0 {fill:#323232}
   ]]>
  </style>
 </defs>
 <g id="Camada_x0020_1">
  <metadata id="CorelCorpID_0Corel-Layer"/>
  <path class="fil0" d="M34.12 60.32c-12.47,10.43 -18.14,12.09 -26.7,28.96 -6.86,13.52 -9.48,30.29 -5.66,46.95 1.69,7.38 4.67,13.89 7.73,19.36 4.48,8 7.56,10.05 12.64,15.66 12.83,14.16 30.66,15.19 37.93,18.92l0.32 11.96 -20.97 0.01 -0.15 17.54 21.08 0.62 0.1 20.94 17.55 0.2 0.55 -21.08 20.73 -0.15 0.33 -17.7 -21.12 -0.42 0.11 -11.93c9.12,-4.69 19.7,-2.19 37.38,-18.27 31.33,-28.5 28.16,-75.79 4.15,-98.59l-15.44 -12.99c8.55,-8.39 13.2,-7.55 23.68,-23.62 6.3,-9.66 10.07,-22.49 10.45,-36.57l-18.25 -0.03c-0.68,66.13 -100.33,69 -102.39,0.25l-18.08 -0.34c-0.16,29.57 14.8,45.49 34.02,60.32zm25.74 10.12c-67.42,14.25 -46.38,113.91 19.86,100.4 24.13,-4.92 46.24,-29.14 39.87,-60.42 -4.89,-23.98 -29.77,-46.32 -59.72,-39.98z"/>
 </g>
</svg>
