<?xml version="1.0" encoding="UTF-8"?>
<!DOCTYPE svg PUBLIC "-//W3C//DTD SVG 1.1//EN" "http://www.w3.org/Graphics/SVG/1.1/DTD/svg11.dtd">
<!-- Creator: CorelDRAW 2020 (64 Bit) -->
<svg xmlns="http://www.w3.org/2000/svg" xml:space="preserve" width="8.0366mm" height="13.6269mm" version="1.1" style="shape-rendering:geometricPrecision; text-rendering:geometricPrecision; image-rendering:optimizeQuality; fill-rule:evenodd; clip-rule:evenodd"
viewBox="0 0 217.07 368.06"
 xmlns:xlink="http://www.w3.org/1999/xlink"
 xmlns:xodm="http://www.corel.com/coreldraw/odm/2003">
 <defs>
  <style type="text/css">
   <![CDATA[
    .fil0 {fill:#323232}
   ]]>
  </style>
 </defs>
 <g id="Camada_x0020_1">
  <metadata id="CorelCorpID_0Corel-Layer"/>
  <path class="fil0" d="M40.36 29.7l-40.36 0.44 0.29 34.77 40.33 0.53 -0.09 212.14 35.19 0.4c0.33,-29.21 0.1,-58.7 0.03,-87.93 -0.09,-38.73 2.99,-44.82 25.5,-62.79 39.22,-31.31 93.2,-10.47 78.23,66.66 -10.08,51.91 -54.96,66.39 -62.59,113.54 -11.73,72.54 72.19,76.09 87.11,31.24l-28.27 -16.88c-6.59,5.89 -8.38,11.25 -21.45,10.27 -17.46,-53.91 70.67,-65.93 62.23,-174.08 -4.63,-59.25 -53.21,-89.97 -100.22,-77.27 -20.02,5.4 -27.19,14.26 -40.44,19.7l0.04 -34.78 40.13 -0.48 -0.21 -35.1 -39.74 -0.43 -0.43 -29.64 -34.88 0.29 -0.4 29.41z"/>
 </g>
</svg>
