<?xml version="1.0" encoding="UTF-8"?>
<!DOCTYPE svg PUBLIC "-//W3C//DTD SVG 1.1//EN" "http://www.w3.org/Graphics/SVG/1.1/DTD/svg11.dtd">
<!-- Creator: CorelDRAW 2020 (64 Bit) -->
<svg xmlns="http://www.w3.org/2000/svg" xml:space="preserve" width="9.9649mm" height="9.9514mm" version="1.1" style="shape-rendering:geometricPrecision; text-rendering:geometricPrecision; image-rendering:optimizeQuality; fill-rule:evenodd; clip-rule:evenodd"
viewBox="0 0 198.11 197.84"
 xmlns:xlink="http://www.w3.org/1999/xlink"
 xmlns:xodm="http://www.corel.com/coreldraw/odm/2003">
 <defs>
  <style type="text/css">
   <![CDATA[
    .fil0 {fill:#323232}
   ]]>
  </style>
 </defs>
 <g id="Camada_x0020_1">
  <metadata id="CorelCorpID_0Corel-Layer"/>
  <path class="fil0" d="M85.38 1.06c-50.52,6.96 -93.24,53.45 -84.16,112.86 8.34,54.56 60.06,91.31 113.44,82.66 49.92,-8.09 90.84,-54.18 82.3,-113.08 -1.95,-13.43 -6.31,-25.41 -13.04,-35.76 -22.22,-34.22 -56.62,-52.45 -98.55,-46.68zm-0.99 26.49c-96.73,22.1 -63.01,162.88 30.94,142.48 34.74,-7.54 64.16,-43.52 55.12,-87.02 -7.08,-34.07 -43.35,-65.22 -86.06,-55.47z"/>
  <path class="fil0" d="M117.58 89.67c-6.09,-5.2 -10.63,-12.61 -23.79,-9.35 -9.55,2.36 -16.56,11.54 -12.91,24.28 5.06,17.67 40.08,22.79 36.71,-14.93z"/>
 </g>
</svg>
