<?xml version="1.0" encoding="UTF-8"?>
<!DOCTYPE svg PUBLIC "-//W3C//DTD SVG 1.1//EN" "http://www.w3.org/Graphics/SVG/1.1/DTD/svg11.dtd">
<!-- Creator: CorelDRAW 2020 (64 Bit) -->
<svg xmlns="http://www.w3.org/2000/svg" xml:space="preserve" width="9.9569mm" height="13.6393mm" version="1.1" style="shape-rendering:geometricPrecision; text-rendering:geometricPrecision; image-rendering:optimizeQuality; fill-rule:evenodd; clip-rule:evenodd"
viewBox="0 0 313.09 428.88"
 xmlns:xlink="http://www.w3.org/1999/xlink"
 xmlns:xodm="http://www.corel.com/coreldraw/odm/2003">
 <defs>
  <style type="text/css">
   <![CDATA[
    .fil0 {fill:#323232}
   ]]>
  </style>
 </defs>
 <g id="Camada_x0020_1">
  <metadata id="CorelCorpID_0Corel-Layer"/>
  <path class="fil0" d="M135.95 311.61l-0.32 28.43 -47.31 0.25 0.08 40.19 47.44 0.69 0.31 47.32 40.16 0.39 0.84 -46.58 47.03 -1.33 0.62 -41.11 -47.21 0.12 -0.69 -26.9c35.73,-13.44 62.78,-12.75 96.43,-52.59 91.93,-108.82 12.54,-260.08 -116.24,-260.48 -83.15,-0.26 -152.03,65.05 -156.77,144.42 -5.23,87.68 56.26,157.75 135.64,167.18zm1.56 -268.48c-57.25,9.61 -108.28,63.89 -94.61,135.28 10.81,56.43 67.26,105.41 136.3,91.4 54.98,-11.16 104.3,-65.89 90.83,-134.37 -11.11,-56.48 -63.87,-103.84 -132.53,-92.31z"/>
 </g>
</svg>
